<svg width="161" height="112" viewBox="0 0 161 112" fill="none" xmlns="http://www.w3.org/2000/svg">
<g id="Phlatson Mark">
<path id="Rectangle (Stroke)" fill-rule="evenodd" clip-rule="evenodd" d="M129 12H32C20.9543 12 12 20.9543 12 32V80C12 91.0457 20.9543 100 32 100H129C140.046 100 149 91.0457 149 80V32C149 20.9543 140.046 12 129 12ZM32 0C14.3269 0 0 14.3269 0 32V80C0 97.6731 14.3269 112 32 112H129C146.673 112 161 97.6731 161 80V32C161 14.3269 146.673 0 129 0H32Z" fill="#7963FF"/>
<g id="Features">
<g id="Logo Mark Half">
<g id="Vector" transform="translate(25 27)">
<path d="M43 9.5C43 14.7467 38.7467 19 33.5 19C28.2533 19 24 14.7467 24 9.5C24 4.25329 28.2533 0 33.5 0C38.7467 0 43 4.25329 43 9.5Z" fill="#7963FF"/>
<path d="M12 22H0V30C0 38.8366 7.16345 46 16 46H41C45.4183 46 49 49.5817 49 54V58H61V48.9971C61 40.7129 54.2843 34 46 34H20C15.5817 34 12 30.4183 12 26V22Z" fill="#7963FF"/>
</g>
</g>
<g id="Logo Mark Half_2">
<g id="Vector_2" transform="translate(135 27) scale(-1 1)">
<path d="M43 9.5C43 14.7467 38.7467 19 33.5 19C28.2533 19 24 14.7467 24 9.5C24 4.25329 28.2533 0 33.5 0C38.7467 0 43 4.25329 43 9.5Z" fill="#7963FF"/>
<path d="M12 22H0V30C0 38.8366 7.16345 46 16 46H41C45.4183 46 49 49.5817 49 54V58H61V48.9971C61 40.7129 54.2843 34 46 34H20C15.5817 34 12 30.4183 12 26V22Z" fill="#7963FF"/>
</g>
</g>
</g>
</g>
</svg>
