<?xml version="1.0" standalone="no"?>
<!DOCTYPE svg PUBLIC "-//W3C//DTD SVG 20010904//EN"
 "http://www.w3.org/TR/2001/REC-SVG-20010904/DTD/svg10.dtd">
<svg version="1.0" xmlns="http://www.w3.org/2000/svg"
 width="196.000000pt" height="196.000000pt" viewBox="0 0 196.000000 196.000000"
 preserveAspectRatio="xMidYMid meet">
<metadata>
Created by potrace 1.11, written by Peter Selinger 2001-2013
</metadata>
<g transform="translate(0.000000,196.000000) scale(0.100000,-0.100000)"
fill="#000000" stroke="none">
<path d="M334 1951 c-93 -23 -180 -83 -241 -164 -151 -206 -85 -495 142 -619
78 -42 122 -47 452 -48 281 0 320 -2 346 -18 72 -42 97 -130 55 -192 -43 -65
-66 -70 -308 -70 -248 0 -269 -5 -307 -79 -35 -68 -11 -146 57 -183 32 -17 58
-18 268 -18 245 1 288 7 375 53 54 28 128 101 160 157 116 205 41 473 -164
579 -88 46 -122 50 -456 51 -353 1 -354 1 -400 70 -45 65 -18 155 57 193 31
15 68 17 365 16 285 -1 340 -4 403 -20 199 -50 362 -187 457 -381 19 -38 32
-68 30 -68 -2 0 4 -21 12 -47 25 -79 26 -244 3 -338 -32 -129 -92 -236 -185
-331 -133 -135 -277 -200 -465 -211 -153 -8 -197 -37 -207 -138 -5 -48 21 -95
69 -126 30 -18 44 -20 148 -15 380 18 699 238 858 591 55 124 76 230 76 395
-1 216 -43 359 -156 531 -134 203 -309 331 -553 405 l-90 28 -385 2 c-212 1
-399 -1 -416 -5z"/>
</g>
</svg>
