<svg width="715" height="98" viewBox="0 0 715 98" fill="none" xmlns="http://www.w3.org/2000/svg">
<path d="M132.536 73.864C128.552 73.864 124.688 73.336 120.944 72.28C117.248 71.176 114.272 69.76 112.016 68.032L115.976 59.248C118.136 60.832 120.704 62.104 123.68 63.064C126.656 64.024 129.632 64.504 132.608 64.504C135.92 64.504 138.368 64.024 139.952 63.064C141.536 62.056 142.328 60.736 142.328 59.104C142.328 57.904 141.848 56.92 140.888 56.152C139.976 55.336 138.776 54.688 137.288 54.208C135.848 53.728 133.88 53.2 131.384 52.624C127.544 51.712 124.4 50.8 121.952 49.888C119.504 48.976 117.392 47.512 115.616 45.496C113.888 43.48 113.024 40.792 113.024 37.432C113.024 34.504 113.816 31.864 115.4 29.512C116.984 27.112 119.36 25.216 122.528 23.824C125.744 22.432 129.656 21.736 134.264 21.736C137.48 21.736 140.624 22.12 143.696 22.888C146.768 23.656 149.456 24.76 151.76 26.2L148.16 35.056C143.504 32.416 138.848 31.096 134.192 31.096C130.928 31.096 128.504 31.624 126.92 32.68C125.384 33.736 124.616 35.128 124.616 36.856C124.616 38.584 125.504 39.88 127.28 40.744C129.104 41.56 131.864 42.376 135.56 43.192C139.4 44.104 142.544 45.016 144.992 45.928C147.44 46.84 149.528 48.28 151.256 50.248C153.032 52.216 153.92 54.88 153.92 58.24C153.92 61.12 153.104 63.76 151.472 66.16C149.888 68.512 147.488 70.384 144.272 71.776C141.056 73.168 137.144 73.864 132.536 73.864ZM183.706 22.6C188.17 22.6 192.034 23.344 195.298 24.832C198.61 26.32 201.154 28.432 202.93 31.168C204.706 33.904 205.594 37.144 205.594 40.888C205.594 44.584 204.706 47.824 202.93 50.608C201.154 53.344 198.61 55.456 195.298 56.944C192.034 58.384 188.17 59.104 183.706 59.104H173.554V73H161.89V22.6H183.706ZM183.058 49.6C186.562 49.6 189.226 48.856 191.05 47.368C192.874 45.832 193.786 43.672 193.786 40.888C193.786 38.056 192.874 35.896 191.05 34.408C189.226 32.872 186.562 32.104 183.058 32.104H173.554V49.6H183.058ZM246.033 73L236.313 58.96H235.737H225.585V73H213.921V22.6H235.737C240.201 22.6 244.065 23.344 247.329 24.832C250.641 26.32 253.185 28.432 254.961 31.168C256.737 33.904 257.625 37.144 257.625 40.888C257.625 44.632 256.713 47.872 254.889 50.608C253.113 53.296 250.569 55.36 247.257 56.8L258.561 73H246.033ZM245.817 40.888C245.817 38.056 244.905 35.896 243.081 34.408C241.257 32.872 238.593 32.104 235.089 32.104H225.585V49.672H235.089C238.593 49.672 241.257 48.904 243.081 47.368C244.905 45.832 245.817 43.672 245.817 40.888ZM289.259 73.864C282.059 73.864 276.443 71.872 272.411 67.888C268.427 63.904 266.435 58.216 266.435 50.824V22.6H278.099V50.392C278.099 59.416 281.843 63.928 289.331 63.928C292.979 63.928 295.763 62.848 297.683 60.688C299.603 58.48 300.563 55.048 300.563 50.392V22.6H312.083V50.824C312.083 58.216 310.067 63.904 306.035 67.888C302.051 71.872 296.459 73.864 289.259 73.864ZM323.609 22.6H335.273V73H323.609V22.6ZM356.522 73.864C353.114 73.864 349.97 73.24 347.09 71.992C344.258 70.696 341.93 68.872 340.106 66.52L346.586 58.744C349.322 62.44 352.442 64.288 355.946 64.288C360.698 64.288 363.074 61.504 363.074 55.936V31.96H345.362V22.6H374.666V55.288C374.666 61.48 373.13 66.136 370.058 69.256C366.986 72.328 362.474 73.864 356.522 73.864ZM395.783 32.104H379.655V22.6H423.575V32.104H407.447V73H395.783V32.104Z" fill="black"/>
<path d="M429.851 22.6H452.747C458.219 22.6 463.043 23.656 467.219 25.768C471.443 27.832 474.707 30.76 477.011 34.552C479.363 38.344 480.539 42.76 480.539 47.8C480.539 52.84 479.363 57.256 477.011 61.048C474.707 64.84 471.443 67.792 467.219 69.904C463.043 71.968 458.219 73 452.747 73H429.851V22.6ZM452.171 63.424C457.211 63.424 461.219 62.032 464.195 59.248C467.219 56.416 468.731 52.6 468.731 47.8C468.731 43 467.219 39.208 464.195 36.424C461.219 33.592 457.211 32.176 452.171 32.176H441.515V63.424H452.171ZM528.359 63.64V73H489.335V22.6H527.423V31.96H500.927V42.904H524.327V51.976H500.927V63.64H528.359ZM554.2 73.864C550.216 73.864 546.352 73.336 542.608 72.28C538.912 71.176 535.936 69.76 533.68 68.032L537.64 59.248C539.8 60.832 542.368 62.104 545.344 63.064C548.32 64.024 551.296 64.504 554.272 64.504C557.584 64.504 560.032 64.024 561.616 63.064C563.2 62.056 563.992 60.736 563.992 59.104C563.992 57.904 563.512 56.92 562.552 56.152C561.64 55.336 560.44 54.688 558.952 54.208C557.512 53.728 555.544 53.2 553.048 52.624C549.208 51.712 546.064 50.8 543.616 49.888C541.168 48.976 539.056 47.512 537.28 45.496C535.552 43.48 534.688 40.792 534.688 37.432C534.688 34.504 535.48 31.864 537.064 29.512C538.648 27.112 541.024 25.216 544.192 23.824C547.408 22.432 551.32 21.736 555.928 21.736C559.144 21.736 562.288 22.12 565.36 22.888C568.432 23.656 571.12 24.76 573.424 26.2L569.824 35.056C565.168 32.416 560.512 31.096 555.856 31.096C552.592 31.096 550.168 31.624 548.584 32.68C547.048 33.736 546.28 35.128 546.28 36.856C546.28 38.584 547.168 39.88 548.944 40.744C550.768 41.56 553.528 42.376 557.224 43.192C561.064 44.104 564.208 45.016 566.656 45.928C569.104 46.84 571.192 48.28 572.92 50.248C574.696 52.216 575.584 54.88 575.584 58.24C575.584 61.12 574.768 63.76 573.136 66.16C571.552 68.512 569.152 70.384 565.936 71.776C562.72 73.168 558.808 73.864 554.2 73.864ZM583.554 22.6H595.218V73H583.554V22.6ZM641.235 47.008H651.891V67.456C649.155 69.52 645.987 71.104 642.387 72.208C638.787 73.312 635.163 73.864 631.515 73.864C626.283 73.864 621.579 72.76 617.403 70.552C613.227 68.296 609.939 65.2 607.539 61.264C605.187 57.28 604.011 52.792 604.011 47.8C604.011 42.808 605.187 38.344 607.539 34.408C609.939 30.424 613.251 27.328 617.475 25.12C621.699 22.864 626.451 21.736 631.731 21.736C636.147 21.736 640.155 22.48 643.755 23.968C647.355 25.456 650.379 27.616 652.827 30.448L645.339 37.36C641.739 33.568 637.395 31.672 632.307 31.672C629.091 31.672 626.235 32.344 623.739 33.688C621.243 35.032 619.299 36.928 617.907 39.376C616.515 41.824 615.819 44.632 615.819 47.8C615.819 50.92 616.515 53.704 617.907 56.152C619.299 58.6 621.219 60.52 623.667 61.912C626.163 63.256 628.995 63.928 632.163 63.928C635.523 63.928 638.547 63.208 641.235 61.768V47.008ZM708.95 22.6V73H699.374L674.246 42.4V73H662.726V22.6H672.374L697.43 53.2V22.6H708.95Z" fill="#9C9C9C"/>
<path d="M45.5 91H47.5C70.696 91 89.5 71.8176 89.5 48.6216V48.6216C89.5 25.8399 71.0317 7 48.25 7H21C13.268 7 7 13.268 7 21V21C7 28.732 13.268 35 21 35H48C55.732 35 62 41.268 62 49V49C62 56.732 55.732 63 48 63H29.25" stroke="#724FFF" stroke-width="14" stroke-linecap="round" stroke-linejoin="round"/>
</svg>
