<?xml version="1.0" standalone="no"?>
<!DOCTYPE svg PUBLIC "-//W3C//DTD SVG 20010904//EN"
 "http://www.w3.org/TR/2001/REC-SVG-20010904/DTD/svg10.dtd">
<svg version="1.0" xmlns="http://www.w3.org/2000/svg"
 width="16.000000pt" height="16.000000pt" viewBox="0 0 16.000000 16.000000"
 preserveAspectRatio="xMidYMid meet">
<metadata>
Created by potrace 1.11, written by Peter Selinger 2001-2013
</metadata>
<g transform="translate(0.000000,16.000000) scale(0.004000,-0.004000)"
fill="#000000" stroke="none">
<path d="M280 2000 l0 -1280 253 2 252 3 3 513 2 512 955 0 955 0 0 250 0 250
-955 0 -955 0 0 260 0 260 955 0 955 0 0 255 0 255 -1210 0 -1210 0 0 -1280z"/>
<path d="M3217 3273 c-4 -3 -7 -465 -7 -1025 l0 -1018 -955 0 -955 0 0 -255 0
-255 1210 0 1210 0 0 1280 0 1280 -248 0 c-137 0 -252 -3 -255 -7z"/>
</g>
</svg>
